<?xml version="1.0" encoding="UTF-8" standalone="no"?>
<svg width="57px" height="59px" viewBox="0 0 57 59" version="1.1" xmlns="http://www.w3.org/2000/svg" xmlns:xlink="http://www.w3.org/1999/xlink" xmlns:sketch="http://www.bohemiancoding.com/sketch/ns">
    <!-- Generator: Sketch 3.1.1 (8761) - http://www.bohemiancoding.com/sketch -->
	<g stroke="none" stroke-width="1" fill="#ffffff" fill-rule="evenodd" sketch:type="MSPage">
		<path d="M40.4316062,14.0715 C30.3310881,11.446 25.3103627,20.6795 25.2217617,20.886 C25.1036269,20.6795 20.1124352,11.446 10.0119171,14.0715 C-0.206735751,16.7265 -11.2523316,34.2495 25.2217617,58.882 L25.2217617,58.882 L25.2217617,58.882 L25.2217617,58.882 C61.6958549,34.2495 50.6502591,16.7265 40.4316062,14.0715 L40.4316062,14.0715 Z M44.0937824,25.4585 C43.4735751,25.7535 43.0601036,26.2255 42.7056995,26.786 C42.4398964,27.199 42.2036269,27.73 41.642487,27.7595 C41.2880829,27.789 39.9,26.8745 39.7523316,26.786 C39.6046632,26.6975 39.5455959,26.727 39.6637306,26.845 C40.7860104,27.9365 41.3176166,29.441 39.9,30.562 C39.2502591,31.0635 38.3051813,31.2995 37.507772,31.1225 C36.0015544,30.798 36.3264249,28.4085 36.5036269,27.2875 C36.5036269,27.2875 36.5331606,27.258 36.5036269,27.2285 C36.5036269,27.199 36.4740933,27.1695 36.4445596,27.1695 C36.4445596,27.1695 36.3854922,27.14 36.3559585,27.14 C36.3264249,27.14 36.2968912,27.1695 36.2968912,27.1695 C35.3813472,27.789 33.3139896,29.087 32.3984456,27.8185 C31.9259067,27.1695 31.719171,26.196 31.9259067,25.3995 C32.3689119,23.6295 33.9637306,23.541 35.4108808,24.1015 C35.5290155,24.1605 35.5585492,24.1015 35.4108808,23.9835 C35.2632124,23.895 33.8751295,23.01 33.7569948,22.6855 C33.5502591,22.184 33.9637306,21.712 34.2295337,21.3285 C34.5839378,20.768 34.8497409,20.2075 34.8497409,19.529 C34.8497409,19.116 34.8202073,18.3785 35.4404145,18.4965 C35.5585492,18.526 35.7948187,18.585 35.9129534,18.6735 C37.5373057,19.7355 37.8326425,21.7415 37.7440415,23.541 C37.7145078,24.013 37.6554404,24.485 37.5963731,24.957 C37.5668394,25.075 37.7440415,25.016 37.8031088,25.016 L37.8031088,25.016 C37.8326425,25.075 37.8326425,25.252 37.9507772,25.193 C38.334715,24.9275 38.7481865,24.6915 39.1911917,24.485 C40.7860104,23.6885 42.7352332,23.0985 44.3891192,24.1605 C44.5367876,24.249 44.684456,24.426 44.7435233,24.5145 C45.1569948,25.016 44.4777202,25.2815 44.0937824,25.4585 L44.0937824,25.4585 Z" id="Shape" sketch:type="MSShapeGroup"></path>
		<path d="M56.7637306,6.018 C56.6751295,5.9 56.5274611,5.7525 56.4093264,5.664 C54.7849741,4.6315 52.8062176,5.192 51.211399,5.9885 C50.7979275,6.195 50.384456,6.431 49.9709845,6.6965 C49.8528497,6.7555 49.8823834,6.5785 49.8233161,6.5195 L49.8233161,6.5195 C49.7642487,6.5195 49.5870466,6.5785 49.6165803,6.4605 C49.6756477,5.9885 49.734715,5.5165 49.7642487,5.0445 C49.8233161,3.2745 49.557513,1.239 47.9331606,0.177 C47.8150259,0.0885 47.5787565,0.0295 47.4606218,-8.82974249e-16 C46.8404145,-0.118 46.8699482,0.6195 46.8699482,1.0325 C46.8699482,1.711 46.6041451,2.2715 46.2497409,2.832 C45.9839378,3.245 45.6,3.6875 45.7772021,4.189 C45.8953368,4.5135 47.2834197,5.3985 47.4310881,5.487 C47.5787565,5.5755 47.5492228,5.6345 47.4310881,5.605 C45.9544041,5.0445 44.3891192,5.1625 43.946114,6.903 C43.7393782,7.6995 43.9165803,8.6435 44.4186528,9.322 C45.3341969,10.561 47.4015544,9.263 48.3170984,8.673 C48.3170984,8.673 48.3466321,8.6435 48.3761658,8.6435 C48.4056995,8.6435 48.4352332,8.6435 48.4647668,8.673 C48.4943005,8.673 48.5238342,8.7025 48.5238342,8.732 L48.5238342,8.791 C48.3466321,9.8825 48.0217617,12.3015 49.5279793,12.626 C50.3253886,12.803 51.2704663,12.567 51.9202073,12.0655 C53.3378238,10.9445 52.7766839,9.44 51.6839378,8.3485 C51.5953368,8.26 51.6248705,8.201 51.7725389,8.2895 C51.9202073,8.378 53.3082902,9.2925 53.6626943,9.263 C54.1943005,9.2335 54.4601036,8.7025 54.7259067,8.2895 C55.0803109,7.729 55.4937824,7.257 56.1139896,6.962 C56.4683938,6.8145 57.1476684,6.549 56.7637306,6.018 L56.7637306,6.018 Z" id="Shape" sketch:type="MSShapeGroup"></path>
	</g>
</svg>