<?xml version="1.0" encoding="UTF-8" standalone="no"?>
<svg width="137px" height="24px" viewBox="0 0 137 24" version="1.1" xmlns="http://www.w3.org/2000/svg" xmlns:xlink="http://www.w3.org/1999/xlink" xmlns:sketch="http://www.bohemiancoding.com/sketch/ns">
    <!-- Generator: Sketch 3.1.1 (8761) - http://www.bohemiancoding.com/sketch -->
    <g stroke="none" stroke-width="1" fill="#ffffff" fill-rule="evenodd">
		<path d="M7.35950413,24.1142857 L-0.226446281,24.1142857 L-0.226446281,0 L2.94380165,0 L2.94380165,21.2 L7.35950413,21.2 L7.35950413,24.1142857 L7.35950413,24.1142857 Z" id="Shape" sketch:type="MSShapeGroup"></path>
		<path d="M12.7942149,24.1142857 L9.62396694,24.1142857 L9.62396694,4.11428571 C9.62396694,1.37142857 10.9260331,0 13.4735537,0 L15.8512397,0 C18.3987603,0 19.7008264,1.37142857 19.7008264,4.11428571 L19.7008264,24.1142857 L16.5305785,24.1142857 L16.5305785,15.2571429 L12.8508264,15.2571429 L12.8508264,24.1142857 L12.7942149,24.1142857 Z M16.4739669,12.3428571 L16.4739669,4.34285714 C16.4739669,3.42857143 16.0210744,2.91428571 15.0586777,2.91428571 L14.2095041,2.91428571 C13.303719,2.91428571 12.7942149,3.37142857 12.7942149,4.34285714 L12.7942149,12.3428571 L16.4739669,12.3428571 L16.4739669,12.3428571 Z" id="Shape" sketch:type="MSShapeGroup"></path>
		<path d="M32.8913223,0 L32.8913223,19.5428571 C32.8913223,22.5714286 31.5892562,24.1142857 29.0417355,24.1142857 L26.3243802,24.1142857 C23.7768595,24.1142857 22.4747934,22.5714286 22.4747934,19.4857143 L22.4747934,0 L25.6450413,0 L25.6450413,19.6 C25.6450413,20.6285714 26.0979339,21.2 27.0603306,21.2 L28.3623967,21.2 C29.2115702,21.2 29.6644628,20.6857143 29.6644628,19.6 L29.6644628,0 L32.8913223,0 L32.8913223,0 Z" id="Shape" sketch:type="MSShapeGroup"></path>
		<path d="M35.7785124,0 L42.0057851,0 C44.4400826,0 45.6855372,1.37142857 45.6855372,4.11428571 L45.6855372,10.0571429 C45.6855372,12.1714286 45.0628099,13.4857143 43.8173554,14.0571429 L46.0252066,24.1142857 L43.0247934,24.1142857 L40.9301653,14.4 L39.0053719,14.4 L39.0053719,24.1142857 L35.835124,24.1142857 L35.835124,0 L35.7785124,0 Z M39.0053719,11.6 L41.1,11.6 C42.0623967,11.6 42.5152893,11.0285714 42.5152893,9.82857143 L42.5152893,4.62857143 C42.5152893,3.48571429 42.0623967,2.85714286 41.1,2.85714286 L39.0053719,2.85714286 L39.0053719,11.6 L39.0053719,11.6 Z" id="Shape" sketch:type="MSShapeGroup"></path>
		<path d="M48.6293388,24.1142857 L48.6293388,0 L56.5549587,0 L56.5549587,2.91428571 L51.8561983,2.91428571 L51.8561983,10.2285714 L56.0454545,10.2285714 L56.0454545,13.1428571 L51.8561983,13.1428571 L51.8561983,21.1428571 L56.5549587,21.1428571 L56.5549587,24.0571429 L48.6293388,24.0571429 L48.6293388,24.1142857 Z" id="Shape" sketch:type="MSShapeGroup"></path>
		<path d="M65.7260331,11.6571429 L65.7260331,0 L68.896281,0 L68.896281,24.1142857 L65.7260331,24.1142857 L65.7260331,19.3142857 L62.2727273,8.34285714 L62.2727273,24.1142857 L59.1024793,24.1142857 L59.1024793,0 L62.2727273,0 L65.7260331,11.6571429 L65.7260331,11.6571429 Z" id="Shape" sketch:type="MSShapeGroup"></path>
		<path d="M71.3871901,8.8 L72.9157025,4.45714286 L71.3305785,4.45714286 L71.3305785,-0.0571428571 L73.5384298,-0.0571428571 C74.4442149,-0.0571428571 74.8971074,0.4 74.8971074,1.25714286 L74.8971074,4.45714286 L73.3119835,8.8 L71.3871901,8.8 L71.3871901,8.8 Z" id="Shape" sketch:type="MSShapeGroup"></path>
		<path d="M83.8983471,6.45714286 L83.8983471,4.34285714 C83.8983471,3.37142857 83.4454545,2.91428571 82.4830579,2.91428571 L81.9735537,2.91428571 C81.0677686,2.91428571 80.614876,3.37142857 80.614876,4.34285714 L80.614876,8.34285714 C80.614876,8.8 80.7280992,9.08571429 80.8979339,9.25714286 C81.0677686,9.42857143 81.3508264,9.6 81.7471074,9.88571429 L84.7475207,11.5428571 C85.4268595,11.9428571 85.8797521,12.2285714 86.1628099,12.4571429 C86.4458678,12.6857143 86.672314,12.9142857 86.7855372,13.2571429 C86.9553719,13.5428571 87.0119835,14.1142857 87.0119835,14.9714286 L87.0119835,20.1142857 C87.0119835,22.8 85.7099174,24.1714286 83.1623967,24.1714286 L81.1809917,24.1714286 C78.6334711,24.1714286 77.331405,22.6857143 77.331405,19.7142857 L77.331405,18.5142857 L80.5016529,18.5142857 L80.5016529,19.8285714 C80.5016529,20.7428571 80.9545455,21.2571429 81.9169421,21.2571429 L82.4830579,21.2571429 C83.3322314,21.2571429 83.7285124,20.8 83.7285124,19.8285714 L83.7285124,15.7142857 C83.7285124,15.2571429 83.6152893,14.9714286 83.4454545,14.8 C83.2756198,14.6285714 82.992562,14.4571429 82.596281,14.1714286 L79.5958678,12.4571429 C78.9165289,12.1142857 78.4636364,11.7714286 78.1239669,11.5428571 C77.8409091,11.3142857 77.6144628,10.9714286 77.5012397,10.5714286 C77.3880165,10.1714286 77.2747934,9.65714286 77.2747934,9.02857143 L77.2747934,4.11428571 C77.2747934,1.37142857 78.5768595,-8.8817842e-15 81.1243802,-8.8817842e-15 L83.1057851,-8.8817842e-15 C85.6533058,-8.8817842e-15 86.9553719,1.37142857 86.9553719,4.11428571 L86.9553719,6.45714286 L83.8983471,6.45714286 L83.8983471,6.45714286 Z" id="Shape" sketch:type="MSShapeGroup"></path>
		<path d="M98.9004132,24.1142857 L95.7301653,24.1142857 L95.7301653,0 L98.9004132,0 L98.9004132,24.1142857 L98.9004132,24.1142857 Z M106.259917,24.1142857 L103.089669,24.1142857 L99.0702479,12.3428571 L99.0702479,12.1142857 L102.410331,1.77635684e-15 L105.354132,1.77635684e-15 L102.01405,12 L106.259917,24.1142857 L106.259917,24.1142857 Z" id="Shape" sketch:type="MSShapeGroup"></path>
		<path d="M108.637603,24.1142857 L108.637603,0 L111.807851,0 L111.807851,24.1142857 L108.637603,24.1142857 L108.637603,24.1142857 Z" id="Shape" sketch:type="MSShapeGroup"></path>
		<path d="M114.751653,24.1142857 L114.751653,0 L120.299587,0 C123.3,0 124.771901,1.54285714 124.771901,4.62857143 L124.771901,20.6285714 C124.771901,22.9714286 123.469835,24.1142857 120.922314,24.1142857 L114.751653,24.1142857 L114.751653,24.1142857 Z M117.921901,21.2 L120.299587,21.2 C121.14876,21.2 121.545041,20.8571429 121.545041,20.1142857 L121.545041,4.68571429 C121.545041,3.54285714 121.092149,2.91428571 120.129752,2.91428571 L117.921901,2.91428571 L117.921901,21.2 L117.921901,21.2 Z" id="Shape" sketch:type="MSShapeGroup"></path>
		<path d="M133.886364,6.45714286 L133.886364,4.34285714 C133.886364,3.37142857 133.433471,2.91428571 132.471074,2.91428571 L131.96157,2.91428571 C131.055785,2.91428571 130.602893,3.37142857 130.602893,4.34285714 L130.602893,8.34285714 C130.602893,8.8 130.716116,9.08571429 130.88595,9.25714286 C131.055785,9.42857143 131.338843,9.6 131.735124,9.88571429 L134.735537,11.5428571 C135.414876,11.9428571 135.867769,12.2285714 136.150826,12.4571429 C136.433884,12.6857143 136.660331,12.9142857 136.773554,13.2571429 C136.943388,13.5428571 137,14.1142857 137,14.9714286 L137,20.1142857 C137,22.8 135.697934,24.1714286 133.150413,24.1714286 L131.169008,24.1714286 C128.621488,24.1714286 127.319421,22.6857143 127.319421,19.7142857 L127.319421,18.5142857 L130.489669,18.5142857 L130.489669,19.8285714 C130.489669,20.7428571 130.942562,21.2571429 131.904959,21.2571429 L132.471074,21.2571429 C133.320248,21.2571429 133.716529,20.8 133.716529,19.8285714 L133.716529,15.7142857 C133.716529,15.2571429 133.603306,14.9714286 133.433471,14.8 C133.263636,14.6285714 132.980579,14.4571429 132.584298,14.1714286 L129.583884,12.4571429 C128.904545,12.1142857 128.451653,11.7714286 128.111983,11.5428571 C127.828926,11.3142857 127.602479,10.9714286 127.489256,10.5714286 C127.376033,10.1714286 127.26281,9.65714286 127.26281,9.02857143 L127.26281,4.11428571 C127.26281,1.37142857 128.564876,-8.8817842e-15 131.112397,-8.8817842e-15 L133.093802,-8.8817842e-15 C135.641322,-8.8817842e-15 136.943388,1.37142857 136.943388,4.11428571 L136.943388,6.45714286 L133.886364,6.45714286 L133.886364,6.45714286 Z" id="Shape" sketch:type="MSShapeGroup"></path>
	</g>
</svg>