<?xml version="1.0" encoding="UTF-8" standalone="no"?>
<svg width="270px" height="310px" viewBox="0 0 270 310" version="1.1" xmlns="http://www.w3.org/2000/svg" xmlns:xlink="http://www.w3.org/1999/xlink" xmlns:sketch="http://www.bohemiancoding.com/sketch/ns">
    <!-- Generator: Sketch 3.1.1 (8761) - http://www.bohemiancoding.com/sketch -->    <defs></defs>
    <g stroke="none" stroke-width="1" fill="currentColor" fill-rule="evenodd" sketch:type="MSPage">
		<path d="M67.33,61.304 C95.79,60.87 109.43,44.146 107.61,28.943 C106.09,16.235 93.77,4.585 70.28,4.394 C50.93,4.24 38.3,18.568 36.4,32.883 C34.49,47.279 43.44,61.665 67.33,61.304" id="Fill-10"></path>
		<path d="M209.83,57.755 C237.14,56.205 249.08,42.556 249.25,28.92 C249.44,13.545 234.68,-1.816 210.13,0.175 C190.45,1.774 178.93,15.355 177.18,28.935 C175.24,44.035 185.39,59.138 209.83,57.755" id="Fill-12"></path>
		<path d="M104.52,277.695 C6.16,277.695 19.6,160.745 36.15,160.077 C150.47,155.472 179.73,150.745 220.5,150.745 C261.96,150.745 183.03,277.695 104.52,277.695 L104.52,277.695 Z M227.25,118.498 C159.11,125.359 155.78,126.034 30.44,128.925 C-22.42,129.15 -11.16,310 101.7,310 C209.19,310 338.87,107.26 227.25,118.498 L227.25,118.498 Z" id="Fill-13"></path>
    </g>
</svg>